<mxfile host="app.diagrams.net" modified="2022-12-12T21:56:30.135Z" agent="5.0 (Windows NT 10.0; Win64; x64) AppleWebKit/537.36 (KHTML, like Gecko) Chrome/108.0.0.0 Safari/537.36" etag="dzRSzarjw3H57l11CC9Q" version="20.6.2" type="github" pages="3">
  <diagram id="R2lEEEUBdFMjLlhIrx00" name="Page-1">
    <mxGraphModel dx="2523" dy="826" grid="1" gridSize="10" guides="1" tooltips="1" connect="1" arrows="1" fold="1" page="1" pageScale="1" pageWidth="850" pageHeight="1100" math="0" shadow="0" extFonts="Permanent Marker^https://fonts.googleapis.com/css?family=Permanent+Marker">
      <root>
        <mxCell id="0" />
        <mxCell id="1" parent="0" />
        <mxCell id="Yi5dwS_RS6isdYSKXxk6-111" style="edgeStyle=orthogonalEdgeStyle;rounded=0;orthogonalLoop=1;jettySize=auto;html=1;exitX=1;exitY=0.5;exitDx=0;exitDy=0;entryX=0;entryY=0.5;entryDx=0;entryDy=0;fontFamily=Helvetica;" edge="1" parent="1" source="Yi5dwS_RS6isdYSKXxk6-2" target="Yi5dwS_RS6isdYSKXxk6-15">
          <mxGeometry relative="1" as="geometry" />
        </mxCell>
        <mxCell id="Yi5dwS_RS6isdYSKXxk6-2" value="id" style="ellipse;whiteSpace=wrap;html=1;fontFamily=Helvetica;fontStyle=4;fillColor=#ffe6cc;strokeColor=#d79b00;" vertex="1" parent="1">
          <mxGeometry x="-290" y="400" width="60" height="50" as="geometry" />
        </mxCell>
        <mxCell id="Yi5dwS_RS6isdYSKXxk6-115" style="edgeStyle=orthogonalEdgeStyle;rounded=0;orthogonalLoop=1;jettySize=auto;html=1;exitX=0.5;exitY=1;exitDx=0;exitDy=0;entryX=0;entryY=0;entryDx=0;entryDy=0;fontFamily=Helvetica;" edge="1" parent="1" source="Yi5dwS_RS6isdYSKXxk6-3" target="Yi5dwS_RS6isdYSKXxk6-83">
          <mxGeometry relative="1" as="geometry" />
        </mxCell>
        <mxCell id="Yi5dwS_RS6isdYSKXxk6-3" value="ημερα εναρξης" style="ellipse;whiteSpace=wrap;html=1;fontFamily=Helvetica;" vertex="1" parent="1">
          <mxGeometry x="-270" y="27.5" width="60" height="45" as="geometry" />
        </mxCell>
        <mxCell id="Yi5dwS_RS6isdYSKXxk6-117" style="edgeStyle=orthogonalEdgeStyle;rounded=0;orthogonalLoop=1;jettySize=auto;html=1;exitX=0.5;exitY=1;exitDx=0;exitDy=0;entryX=1;entryY=0;entryDx=0;entryDy=0;fontFamily=Helvetica;" edge="1" parent="1" source="Yi5dwS_RS6isdYSKXxk6-4" target="Yi5dwS_RS6isdYSKXxk6-84">
          <mxGeometry relative="1" as="geometry" />
        </mxCell>
        <mxCell id="Yi5dwS_RS6isdYSKXxk6-4" value="ωρα ληξης" style="ellipse;whiteSpace=wrap;html=1;fontFamily=Helvetica;" vertex="1" parent="1">
          <mxGeometry x="50" y="30" width="60" height="40" as="geometry" />
        </mxCell>
        <mxCell id="Yi5dwS_RS6isdYSKXxk6-114" style="edgeStyle=orthogonalEdgeStyle;rounded=0;orthogonalLoop=1;jettySize=auto;html=1;exitX=0.5;exitY=1;exitDx=0;exitDy=0;entryX=0.775;entryY=0.088;entryDx=0;entryDy=0;entryPerimeter=0;fontFamily=Helvetica;" edge="1" parent="1" source="Yi5dwS_RS6isdYSKXxk6-6" target="Yi5dwS_RS6isdYSKXxk6-83">
          <mxGeometry relative="1" as="geometry" />
        </mxCell>
        <mxCell id="Yi5dwS_RS6isdYSKXxk6-6" value="ωρα εναρξης" style="ellipse;whiteSpace=wrap;html=1;fontFamily=Helvetica;" vertex="1" parent="1">
          <mxGeometry x="-170" y="20" width="60" height="60" as="geometry" />
        </mxCell>
        <mxCell id="Yi5dwS_RS6isdYSKXxk6-116" style="edgeStyle=orthogonalEdgeStyle;rounded=0;orthogonalLoop=1;jettySize=auto;html=1;exitX=0.5;exitY=1;exitDx=0;exitDy=0;entryX=0;entryY=0;entryDx=0;entryDy=0;fontFamily=Helvetica;" edge="1" parent="1" source="Yi5dwS_RS6isdYSKXxk6-7" target="Yi5dwS_RS6isdYSKXxk6-84">
          <mxGeometry relative="1" as="geometry" />
        </mxCell>
        <mxCell id="Yi5dwS_RS6isdYSKXxk6-7" value="ημερα ληξης" style="ellipse;whiteSpace=wrap;html=1;fontFamily=Helvetica;" vertex="1" parent="1">
          <mxGeometry x="-60" y="25" width="60" height="50" as="geometry" />
        </mxCell>
        <mxCell id="Yi5dwS_RS6isdYSKXxk6-112" style="edgeStyle=orthogonalEdgeStyle;rounded=0;orthogonalLoop=1;jettySize=auto;html=1;exitX=1;exitY=1;exitDx=0;exitDy=0;entryX=0.083;entryY=-0.033;entryDx=0;entryDy=0;entryPerimeter=0;fontFamily=Helvetica;" edge="1" parent="1" source="Yi5dwS_RS6isdYSKXxk6-9" target="Yi5dwS_RS6isdYSKXxk6-15">
          <mxGeometry relative="1" as="geometry" />
        </mxCell>
        <mxCell id="Yi5dwS_RS6isdYSKXxk6-9" value="εκταση (1000/m^2)" style="ellipse;whiteSpace=wrap;html=1;fontFamily=Helvetica;" vertex="1" parent="1">
          <mxGeometry x="-260" y="260" width="80" height="80" as="geometry" />
        </mxCell>
        <mxCell id="Yi5dwS_RS6isdYSKXxk6-141" style="edgeStyle=orthogonalEdgeStyle;rounded=0;orthogonalLoop=1;jettySize=auto;html=1;exitX=1;exitY=0.5;exitDx=0;exitDy=0;entryX=0;entryY=1;entryDx=0;entryDy=0;fontFamily=Helvetica;" edge="1" parent="1" source="Yi5dwS_RS6isdYSKXxk6-12" target="Yi5dwS_RS6isdYSKXxk6-145">
          <mxGeometry relative="1" as="geometry">
            <mxPoint x="-200" y="800" as="targetPoint" />
          </mxGeometry>
        </mxCell>
        <mxCell id="Yi5dwS_RS6isdYSKXxk6-12" value="οχηματα" style="ellipse;whiteSpace=wrap;html=1;fontFamily=Helvetica;" vertex="1" parent="1">
          <mxGeometry x="-290" y="840" width="80" height="80" as="geometry" />
        </mxCell>
        <mxCell id="Yi5dwS_RS6isdYSKXxk6-137" style="edgeStyle=orthogonalEdgeStyle;rounded=0;orthogonalLoop=1;jettySize=auto;html=1;exitX=0.5;exitY=0;exitDx=0;exitDy=0;entryX=0.5;entryY=1;entryDx=0;entryDy=0;fontFamily=Helvetica;" edge="1" parent="1" source="Yi5dwS_RS6isdYSKXxk6-13" target="Yi5dwS_RS6isdYSKXxk6-145">
          <mxGeometry relative="1" as="geometry">
            <mxPoint x="-140" y="830" as="targetPoint" />
          </mxGeometry>
        </mxCell>
        <mxCell id="Yi5dwS_RS6isdYSKXxk6-13" value="προσωπικο" style="ellipse;whiteSpace=wrap;html=1;fontFamily=Helvetica;" vertex="1" parent="1">
          <mxGeometry x="-250" y="975" width="80" height="70" as="geometry" />
        </mxCell>
        <mxCell id="Yi5dwS_RS6isdYSKXxk6-136" style="edgeStyle=orthogonalEdgeStyle;rounded=0;orthogonalLoop=1;jettySize=auto;html=1;exitX=0.5;exitY=0;exitDx=0;exitDy=0;fontFamily=Helvetica;entryX=1;entryY=1;entryDx=0;entryDy=0;" edge="1" parent="1" source="Yi5dwS_RS6isdYSKXxk6-14" target="Yi5dwS_RS6isdYSKXxk6-145">
          <mxGeometry relative="1" as="geometry">
            <mxPoint x="-110" y="830" as="targetPoint" />
          </mxGeometry>
        </mxCell>
        <mxCell id="Yi5dwS_RS6isdYSKXxk6-14" value="εναερια μεσα" style="ellipse;whiteSpace=wrap;html=1;fontFamily=Helvetica;" vertex="1" parent="1">
          <mxGeometry x="-80" y="940" width="80" height="80" as="geometry" />
        </mxCell>
        <mxCell id="Yi5dwS_RS6isdYSKXxk6-15" value="Φωτια" style="whiteSpace=wrap;html=1;fontFamily=Helvetica;" vertex="1" parent="1">
          <mxGeometry x="-180" y="420" width="120" height="60" as="geometry" />
        </mxCell>
        <mxCell id="Yi5dwS_RS6isdYSKXxk6-57" value="δημος" style="rounded=0;whiteSpace=wrap;html=1;fontFamily=Helvetica;" vertex="1" parent="1">
          <mxGeometry x="560" y="230" width="120" height="60" as="geometry" />
        </mxCell>
        <mxCell id="Yi5dwS_RS6isdYSKXxk6-134" style="edgeStyle=orthogonalEdgeStyle;rounded=0;orthogonalLoop=1;jettySize=auto;html=1;exitX=1;exitY=0.5;exitDx=0;exitDy=0;entryX=0;entryY=0.5;entryDx=0;entryDy=0;fontFamily=Helvetica;" edge="1" parent="1" source="Yi5dwS_RS6isdYSKXxk6-58" target="Yi5dwS_RS6isdYSKXxk6-57">
          <mxGeometry relative="1" as="geometry" />
        </mxCell>
        <mxCell id="Yi5dwS_RS6isdYSKXxk6-58" value="id" style="ellipse;whiteSpace=wrap;html=1;fontFamily=Helvetica;fontStyle=4;fillColor=#fff2cc;strokeColor=#d6b656;" vertex="1" parent="1">
          <mxGeometry x="370" y="270" width="60" height="50" as="geometry" />
        </mxCell>
        <mxCell id="Yi5dwS_RS6isdYSKXxk6-131" style="edgeStyle=orthogonalEdgeStyle;rounded=0;orthogonalLoop=1;jettySize=auto;html=1;exitX=0.5;exitY=1;exitDx=0;exitDy=0;entryX=1;entryY=0;entryDx=0;entryDy=0;fontFamily=Helvetica;" edge="1" parent="1" source="Yi5dwS_RS6isdYSKXxk6-60" target="Yi5dwS_RS6isdYSKXxk6-57">
          <mxGeometry relative="1" as="geometry" />
        </mxCell>
        <mxCell id="Yi5dwS_RS6isdYSKXxk6-60" value="ονομα περιφερειας" style="ellipse;whiteSpace=wrap;html=1;fontFamily=Helvetica;" vertex="1" parent="1">
          <mxGeometry x="850" y="40" width="80" height="80" as="geometry" />
        </mxCell>
        <mxCell id="Yi5dwS_RS6isdYSKXxk6-132" style="edgeStyle=orthogonalEdgeStyle;rounded=0;orthogonalLoop=1;jettySize=auto;html=1;exitX=0;exitY=0.5;exitDx=0;exitDy=0;entryX=0.75;entryY=0;entryDx=0;entryDy=0;fontFamily=Helvetica;" edge="1" parent="1" source="Yi5dwS_RS6isdYSKXxk6-61" target="Yi5dwS_RS6isdYSKXxk6-57">
          <mxGeometry relative="1" as="geometry" />
        </mxCell>
        <mxCell id="Yi5dwS_RS6isdYSKXxk6-61" value="ονομα νομου" style="ellipse;whiteSpace=wrap;html=1;fontFamily=Helvetica;" vertex="1" parent="1">
          <mxGeometry x="730" y="40" width="80" height="80" as="geometry" />
        </mxCell>
        <mxCell id="Yi5dwS_RS6isdYSKXxk6-128" style="edgeStyle=orthogonalEdgeStyle;rounded=0;orthogonalLoop=1;jettySize=auto;html=1;exitX=0;exitY=0.5;exitDx=0;exitDy=0;entryX=1.025;entryY=0.383;entryDx=0;entryDy=0;entryPerimeter=0;fontFamily=Helvetica;" edge="1" parent="1" source="Yi5dwS_RS6isdYSKXxk6-62" target="Yi5dwS_RS6isdYSKXxk6-57">
          <mxGeometry relative="1" as="geometry" />
        </mxCell>
        <mxCell id="Yi5dwS_RS6isdYSKXxk6-62" value="ονομα" style="ellipse;whiteSpace=wrap;html=1;fontFamily=Helvetica;" vertex="1" parent="1">
          <mxGeometry x="890" y="180" width="80" height="80" as="geometry" />
        </mxCell>
        <mxCell id="Yi5dwS_RS6isdYSKXxk6-127" style="edgeStyle=orthogonalEdgeStyle;rounded=0;orthogonalLoop=1;jettySize=auto;html=1;exitX=1;exitY=1;exitDx=0;exitDy=0;entryX=0.025;entryY=0.275;entryDx=0;entryDy=0;entryPerimeter=0;fontFamily=Helvetica;" edge="1" parent="1" source="Yi5dwS_RS6isdYSKXxk6-63" target="Yi5dwS_RS6isdYSKXxk6-86">
          <mxGeometry relative="1" as="geometry" />
        </mxCell>
        <mxCell id="Yi5dwS_RS6isdYSKXxk6-63" value="γεωγραφικο μηκος" style="ellipse;whiteSpace=wrap;html=1;fontFamily=Helvetica;" vertex="1" parent="1">
          <mxGeometry x="320" y="15" width="80" height="80" as="geometry" />
        </mxCell>
        <mxCell id="Yi5dwS_RS6isdYSKXxk6-126" style="edgeStyle=orthogonalEdgeStyle;rounded=0;orthogonalLoop=1;jettySize=auto;html=1;exitX=0;exitY=1;exitDx=0;exitDy=0;entryX=1;entryY=0;entryDx=0;entryDy=0;fontFamily=Helvetica;" edge="1" parent="1" source="Yi5dwS_RS6isdYSKXxk6-64" target="Yi5dwS_RS6isdYSKXxk6-86">
          <mxGeometry relative="1" as="geometry" />
        </mxCell>
        <mxCell id="Yi5dwS_RS6isdYSKXxk6-64" value="γεωγραφικο πλατος" style="ellipse;whiteSpace=wrap;html=1;fontFamily=Helvetica;" vertex="1" parent="1">
          <mxGeometry x="550" y="10" width="80" height="80" as="geometry" />
        </mxCell>
        <mxCell id="Yi5dwS_RS6isdYSKXxk6-65" value="Μετερεολογικος Σταθμος" style="whiteSpace=wrap;html=1;fontFamily=Helvetica;allowArrows=1;" vertex="1" parent="1">
          <mxGeometry x="640" y="550" width="120" height="60" as="geometry" />
        </mxCell>
        <mxCell id="Yi5dwS_RS6isdYSKXxk6-97" style="edgeStyle=orthogonalEdgeStyle;rounded=0;orthogonalLoop=1;jettySize=auto;html=1;exitX=0.5;exitY=1;exitDx=0;exitDy=0;entryX=0.325;entryY=0.033;entryDx=0;entryDy=0;entryPerimeter=0;fontFamily=Helvetica;" edge="1" parent="1" source="Yi5dwS_RS6isdYSKXxk6-66" target="Yi5dwS_RS6isdYSKXxk6-65">
          <mxGeometry relative="1" as="geometry" />
        </mxCell>
        <mxCell id="Yi5dwS_RS6isdYSKXxk6-66" value="id" style="ellipse;whiteSpace=wrap;html=1;fontFamily=Helvetica;fontStyle=4;fillColor=#ffe6cc;strokeColor=#d79b00;" vertex="1" parent="1">
          <mxGeometry x="680" y="440" width="60" height="50" as="geometry" />
        </mxCell>
        <mxCell id="Yi5dwS_RS6isdYSKXxk6-96" style="edgeStyle=orthogonalEdgeStyle;rounded=0;orthogonalLoop=1;jettySize=auto;html=1;exitX=0;exitY=1;exitDx=0;exitDy=0;entryX=0.642;entryY=-0.033;entryDx=0;entryDy=0;entryPerimeter=0;fontFamily=Helvetica;" edge="1" parent="1" source="Yi5dwS_RS6isdYSKXxk6-67" target="Yi5dwS_RS6isdYSKXxk6-65">
          <mxGeometry relative="1" as="geometry" />
        </mxCell>
        <mxCell id="Yi5dwS_RS6isdYSKXxk6-67" value="ονομα" style="ellipse;whiteSpace=wrap;html=1;fontFamily=Helvetica;" vertex="1" parent="1">
          <mxGeometry x="760" y="425" width="80" height="80" as="geometry" />
        </mxCell>
        <mxCell id="Yi5dwS_RS6isdYSKXxk6-93" style="edgeStyle=orthogonalEdgeStyle;rounded=0;orthogonalLoop=1;jettySize=auto;html=1;exitX=0;exitY=1;exitDx=0;exitDy=0;fontFamily=Helvetica;" edge="1" parent="1" source="Yi5dwS_RS6isdYSKXxk6-68" target="Yi5dwS_RS6isdYSKXxk6-88">
          <mxGeometry relative="1" as="geometry" />
        </mxCell>
        <mxCell id="Yi5dwS_RS6isdYSKXxk6-68" value="γεωγραφικο μηκος" style="ellipse;whiteSpace=wrap;html=1;fontFamily=Helvetica;" vertex="1" parent="1">
          <mxGeometry x="1030" y="380" width="80" height="80" as="geometry" />
        </mxCell>
        <mxCell id="Yi5dwS_RS6isdYSKXxk6-94" style="edgeStyle=orthogonalEdgeStyle;rounded=0;orthogonalLoop=1;jettySize=auto;html=1;exitX=0;exitY=0;exitDx=0;exitDy=0;entryX=0.5;entryY=1;entryDx=0;entryDy=0;fontFamily=Helvetica;" edge="1" parent="1" source="Yi5dwS_RS6isdYSKXxk6-69" target="Yi5dwS_RS6isdYSKXxk6-88">
          <mxGeometry relative="1" as="geometry" />
        </mxCell>
        <mxCell id="Yi5dwS_RS6isdYSKXxk6-69" value="γεωγραφικο πλατος" style="ellipse;whiteSpace=wrap;html=1;fontFamily=Helvetica;" vertex="1" parent="1">
          <mxGeometry x="1020" y="550" width="80" height="80" as="geometry" />
        </mxCell>
        <mxCell id="Yi5dwS_RS6isdYSKXxk6-98" style="edgeStyle=orthogonalEdgeStyle;rounded=0;orthogonalLoop=1;jettySize=auto;html=1;exitX=0;exitY=0;exitDx=0;exitDy=0;entryX=0.5;entryY=1;entryDx=0;entryDy=0;fontFamily=Helvetica;" edge="1" parent="1" source="Yi5dwS_RS6isdYSKXxk6-70" target="Yi5dwS_RS6isdYSKXxk6-65">
          <mxGeometry relative="1" as="geometry" />
        </mxCell>
        <mxCell id="Yi5dwS_RS6isdYSKXxk6-70" value="υψομετρο" style="ellipse;whiteSpace=wrap;html=1;fontFamily=Helvetica;" vertex="1" parent="1">
          <mxGeometry x="920" y="630" width="80" height="80" as="geometry" />
        </mxCell>
        <mxCell id="Yi5dwS_RS6isdYSKXxk6-121" style="edgeStyle=orthogonalEdgeStyle;rounded=0;orthogonalLoop=1;jettySize=auto;html=1;exitX=0.5;exitY=0;exitDx=0;exitDy=0;entryX=0.5;entryY=1;entryDx=0;entryDy=0;fontFamily=Helvetica;" edge="1" parent="1" source="Yi5dwS_RS6isdYSKXxk6-72" target="Yi5dwS_RS6isdYSKXxk6-89">
          <mxGeometry relative="1" as="geometry" />
        </mxCell>
        <mxCell id="Yi5dwS_RS6isdYSKXxk6-72" value="id" style="ellipse;whiteSpace=wrap;html=1;fontFamily=Helvetica;fontStyle=4;fillColor=#ffe6cc;strokeColor=#d79b00;" vertex="1" parent="1">
          <mxGeometry x="260" y="670" width="60" height="50" as="geometry" />
        </mxCell>
        <mxCell id="Yi5dwS_RS6isdYSKXxk6-125" style="edgeStyle=orthogonalEdgeStyle;rounded=0;orthogonalLoop=1;jettySize=auto;html=1;exitX=0;exitY=0.5;exitDx=0;exitDy=0;entryX=1;entryY=0.5;entryDx=0;entryDy=0;fontFamily=Helvetica;" edge="1" parent="1" source="Yi5dwS_RS6isdYSKXxk6-73" target="Yi5dwS_RS6isdYSKXxk6-90">
          <mxGeometry relative="1" as="geometry" />
        </mxCell>
        <mxCell id="Yi5dwS_RS6isdYSKXxk6-73" value="μεση θερμοκρασια" style="ellipse;whiteSpace=wrap;html=1;fontFamily=Helvetica;" vertex="1" parent="1">
          <mxGeometry x="580" y="655" width="80" height="80" as="geometry" />
        </mxCell>
        <mxCell id="Yi5dwS_RS6isdYSKXxk6-101" style="edgeStyle=orthogonalEdgeStyle;rounded=0;orthogonalLoop=1;jettySize=auto;html=1;exitX=0.5;exitY=0;exitDx=0;exitDy=0;entryX=0;entryY=1;entryDx=0;entryDy=0;fontFamily=Helvetica;" edge="1" parent="1" source="Yi5dwS_RS6isdYSKXxk6-74" target="Yi5dwS_RS6isdYSKXxk6-90">
          <mxGeometry relative="1" as="geometry" />
        </mxCell>
        <mxCell id="Yi5dwS_RS6isdYSKXxk6-74" value="ελαχιστη θερμοκρασια" style="ellipse;whiteSpace=wrap;html=1;fontFamily=Helvetica;" vertex="1" parent="1">
          <mxGeometry x="470" y="790" width="80" height="80" as="geometry" />
        </mxCell>
        <mxCell id="Yi5dwS_RS6isdYSKXxk6-99" style="edgeStyle=orthogonalEdgeStyle;rounded=0;orthogonalLoop=1;jettySize=auto;html=1;exitX=0.5;exitY=0;exitDx=0;exitDy=0;entryX=0.5;entryY=1;entryDx=0;entryDy=0;fontFamily=Helvetica;" edge="1" parent="1" source="Yi5dwS_RS6isdYSKXxk6-75" target="Yi5dwS_RS6isdYSKXxk6-90">
          <mxGeometry relative="1" as="geometry" />
        </mxCell>
        <mxCell id="Yi5dwS_RS6isdYSKXxk6-75" value="μεγιστη θερμοκρασια" style="ellipse;whiteSpace=wrap;html=1;fontFamily=Helvetica;" vertex="1" parent="1">
          <mxGeometry x="570" y="770" width="80" height="80" as="geometry" />
        </mxCell>
        <mxCell id="Yi5dwS_RS6isdYSKXxk6-107" style="edgeStyle=orthogonalEdgeStyle;rounded=0;orthogonalLoop=1;jettySize=auto;html=1;exitX=1;exitY=0;exitDx=0;exitDy=0;entryX=0.045;entryY=0.75;entryDx=0;entryDy=0;entryPerimeter=0;fontFamily=Helvetica;" edge="1" parent="1" source="Yi5dwS_RS6isdYSKXxk6-77" target="Yi5dwS_RS6isdYSKXxk6-92">
          <mxGeometry relative="1" as="geometry" />
        </mxCell>
        <mxCell id="Yi5dwS_RS6isdYSKXxk6-77" value="μεση υγρασια" style="ellipse;whiteSpace=wrap;html=1;fontFamily=Helvetica;" vertex="1" parent="1">
          <mxGeometry x="50" y="860" width="80" height="80" as="geometry" />
        </mxCell>
        <mxCell id="Yi5dwS_RS6isdYSKXxk6-106" style="edgeStyle=orthogonalEdgeStyle;rounded=0;orthogonalLoop=1;jettySize=auto;html=1;exitX=0.5;exitY=0;exitDx=0;exitDy=0;entryX=0.445;entryY=1.038;entryDx=0;entryDy=0;entryPerimeter=0;fontFamily=Helvetica;" edge="1" parent="1" source="Yi5dwS_RS6isdYSKXxk6-78" target="Yi5dwS_RS6isdYSKXxk6-92">
          <mxGeometry relative="1" as="geometry" />
        </mxCell>
        <mxCell id="Yi5dwS_RS6isdYSKXxk6-78" value="μεγιστη υγρασια" style="ellipse;whiteSpace=wrap;html=1;fontFamily=Helvetica;" vertex="1" parent="1">
          <mxGeometry x="140" y="880" width="80" height="80" as="geometry" />
        </mxCell>
        <mxCell id="Yi5dwS_RS6isdYSKXxk6-105" style="edgeStyle=orthogonalEdgeStyle;rounded=0;orthogonalLoop=1;jettySize=auto;html=1;exitX=0.5;exitY=0;exitDx=0;exitDy=0;entryX=1;entryY=1;entryDx=0;entryDy=0;fontFamily=Helvetica;" edge="1" parent="1" source="Yi5dwS_RS6isdYSKXxk6-79" target="Yi5dwS_RS6isdYSKXxk6-92">
          <mxGeometry relative="1" as="geometry" />
        </mxCell>
        <mxCell id="Yi5dwS_RS6isdYSKXxk6-79" value="ελαχιστη υγρασια" style="ellipse;whiteSpace=wrap;html=1;fontFamily=Helvetica;" vertex="1" parent="1">
          <mxGeometry x="240" y="870" width="80" height="80" as="geometry" />
        </mxCell>
        <mxCell id="Yi5dwS_RS6isdYSKXxk6-103" style="edgeStyle=orthogonalEdgeStyle;rounded=0;orthogonalLoop=1;jettySize=auto;html=1;exitX=0.5;exitY=0;exitDx=0;exitDy=0;entryX=0.5;entryY=1;entryDx=0;entryDy=0;fontFamily=Helvetica;" edge="1" parent="1" source="Yi5dwS_RS6isdYSKXxk6-80" target="Yi5dwS_RS6isdYSKXxk6-91">
          <mxGeometry relative="1" as="geometry" />
        </mxCell>
        <mxCell id="Yi5dwS_RS6isdYSKXxk6-80" value="μεση πιεση" style="ellipse;whiteSpace=wrap;html=1;fontFamily=Helvetica;" vertex="1" parent="1">
          <mxGeometry x="400" y="960" width="80" height="80" as="geometry" />
        </mxCell>
        <mxCell id="Yi5dwS_RS6isdYSKXxk6-102" style="edgeStyle=orthogonalEdgeStyle;rounded=0;orthogonalLoop=1;jettySize=auto;html=1;exitX=0.5;exitY=0;exitDx=0;exitDy=0;entryX=1;entryY=1;entryDx=0;entryDy=0;fontFamily=Helvetica;" edge="1" parent="1" source="Yi5dwS_RS6isdYSKXxk6-81" target="Yi5dwS_RS6isdYSKXxk6-91">
          <mxGeometry relative="1" as="geometry" />
        </mxCell>
        <mxCell id="Yi5dwS_RS6isdYSKXxk6-81" value="ελαχιστη πιεση" style="ellipse;whiteSpace=wrap;html=1;fontFamily=Helvetica;" vertex="1" parent="1">
          <mxGeometry x="510" y="970" width="80" height="80" as="geometry" />
        </mxCell>
        <mxCell id="Yi5dwS_RS6isdYSKXxk6-120" style="edgeStyle=orthogonalEdgeStyle;rounded=0;orthogonalLoop=1;jettySize=auto;html=1;exitX=0.5;exitY=0;exitDx=0;exitDy=0;entryX=0.063;entryY=0.75;entryDx=0;entryDy=0;entryPerimeter=0;fontFamily=Helvetica;" edge="1" parent="1" source="Yi5dwS_RS6isdYSKXxk6-82" target="Yi5dwS_RS6isdYSKXxk6-91">
          <mxGeometry relative="1" as="geometry" />
        </mxCell>
        <mxCell id="Yi5dwS_RS6isdYSKXxk6-82" value="μεγιστη πιεση" style="ellipse;whiteSpace=wrap;html=1;fontFamily=Helvetica;" vertex="1" parent="1">
          <mxGeometry x="320" y="950" width="80" height="80" as="geometry" />
        </mxCell>
        <mxCell id="Yi5dwS_RS6isdYSKXxk6-113" style="edgeStyle=orthogonalEdgeStyle;rounded=0;orthogonalLoop=1;jettySize=auto;html=1;exitX=0.5;exitY=1;exitDx=0;exitDy=0;entryX=0.575;entryY=-0.017;entryDx=0;entryDy=0;entryPerimeter=0;fontFamily=Helvetica;" edge="1" parent="1" source="Yi5dwS_RS6isdYSKXxk6-83" target="Yi5dwS_RS6isdYSKXxk6-15">
          <mxGeometry relative="1" as="geometry">
            <Array as="points">
              <mxPoint x="-180" y="280" />
              <mxPoint x="-111" y="280" />
            </Array>
          </mxGeometry>
        </mxCell>
        <mxCell id="Yi5dwS_RS6isdYSKXxk6-83" value="εναρξη" style="ellipse;whiteSpace=wrap;html=1;fontFamily=Helvetica;gradientColor=none;" vertex="1" parent="1">
          <mxGeometry x="-220" y="120" width="80" height="80" as="geometry" />
        </mxCell>
        <mxCell id="Yi5dwS_RS6isdYSKXxk6-118" style="edgeStyle=orthogonalEdgeStyle;rounded=0;orthogonalLoop=1;jettySize=auto;html=1;exitX=0.5;exitY=1;exitDx=0;exitDy=0;entryX=0.75;entryY=0;entryDx=0;entryDy=0;fontFamily=Helvetica;" edge="1" parent="1" source="Yi5dwS_RS6isdYSKXxk6-84" target="Yi5dwS_RS6isdYSKXxk6-15">
          <mxGeometry relative="1" as="geometry" />
        </mxCell>
        <mxCell id="Yi5dwS_RS6isdYSKXxk6-84" value="ληξη" style="ellipse;whiteSpace=wrap;html=1;fontFamily=Helvetica;gradientColor=none;" vertex="1" parent="1">
          <mxGeometry x="-30" y="110" width="80" height="80" as="geometry" />
        </mxCell>
        <mxCell id="Yi5dwS_RS6isdYSKXxk6-119" style="edgeStyle=orthogonalEdgeStyle;rounded=0;orthogonalLoop=1;jettySize=auto;html=1;exitX=0.5;exitY=0;exitDx=0;exitDy=0;entryX=0.5;entryY=1;entryDx=0;entryDy=0;fontFamily=Helvetica;" edge="1" parent="1" source="Yi5dwS_RS6isdYSKXxk6-85" target="Yi5dwS_RS6isdYSKXxk6-15">
          <mxGeometry relative="1" as="geometry" />
        </mxCell>
        <mxCell id="Yi5dwS_RS6isdYSKXxk6-85" value="βοηθεια" style="ellipse;whiteSpace=wrap;html=1;fontFamily=Helvetica;gradientColor=none;" vertex="1" parent="1">
          <mxGeometry x="-200" y="590" width="80" height="80" as="geometry" />
        </mxCell>
        <mxCell id="Yi5dwS_RS6isdYSKXxk6-133" style="edgeStyle=orthogonalEdgeStyle;rounded=0;orthogonalLoop=1;jettySize=auto;html=1;exitX=1;exitY=1;exitDx=0;exitDy=0;entryX=0.25;entryY=0;entryDx=0;entryDy=0;fontFamily=Helvetica;" edge="1" parent="1" source="Yi5dwS_RS6isdYSKXxk6-86" target="Yi5dwS_RS6isdYSKXxk6-57">
          <mxGeometry relative="1" as="geometry" />
        </mxCell>
        <mxCell id="Yi5dwS_RS6isdYSKXxk6-86" value="γεωγραφικη τοποθεσια" style="ellipse;whiteSpace=wrap;html=1;fontFamily=Helvetica;gradientColor=none;" vertex="1" parent="1">
          <mxGeometry x="440" y="90" width="80" height="80" as="geometry" />
        </mxCell>
        <mxCell id="Yi5dwS_RS6isdYSKXxk6-95" style="edgeStyle=orthogonalEdgeStyle;rounded=0;orthogonalLoop=1;jettySize=auto;html=1;exitX=0;exitY=0.5;exitDx=0;exitDy=0;entryX=1;entryY=0.25;entryDx=0;entryDy=0;fontFamily=Helvetica;" edge="1" parent="1" source="Yi5dwS_RS6isdYSKXxk6-88" target="Yi5dwS_RS6isdYSKXxk6-65">
          <mxGeometry relative="1" as="geometry" />
        </mxCell>
        <mxCell id="Yi5dwS_RS6isdYSKXxk6-88" value="γεωγραφικη τοποθεσια" style="ellipse;whiteSpace=wrap;html=1;fontFamily=Helvetica;gradientColor=none;" vertex="1" parent="1">
          <mxGeometry x="930" y="470" width="80" height="80" as="geometry" />
        </mxCell>
        <mxCell id="Yi5dwS_RS6isdYSKXxk6-89" value="Μετερεολογικα δεδομενα" style="rhombus;whiteSpace=wrap;html=1;fontFamily=Helvetica;gradientColor=none;" vertex="1" parent="1">
          <mxGeometry x="220" y="540" width="140" height="100" as="geometry" />
        </mxCell>
        <mxCell id="Yi5dwS_RS6isdYSKXxk6-123" style="edgeStyle=orthogonalEdgeStyle;rounded=0;orthogonalLoop=1;jettySize=auto;html=1;exitX=0.5;exitY=0;exitDx=0;exitDy=0;entryX=1;entryY=0.5;entryDx=0;entryDy=0;fontFamily=Helvetica;" edge="1" parent="1" source="Yi5dwS_RS6isdYSKXxk6-90" target="Yi5dwS_RS6isdYSKXxk6-89">
          <mxGeometry relative="1" as="geometry" />
        </mxCell>
        <mxCell id="Yi5dwS_RS6isdYSKXxk6-90" value="Δεδομενα θερμοκρασιας (C)" style="ellipse;whiteSpace=wrap;html=1;fontFamily=Helvetica;gradientColor=none;" vertex="1" parent="1">
          <mxGeometry x="470" y="650" width="80" height="80" as="geometry" />
        </mxCell>
        <mxCell id="Yi5dwS_RS6isdYSKXxk6-122" style="edgeStyle=orthogonalEdgeStyle;rounded=0;orthogonalLoop=1;jettySize=auto;html=1;exitX=0.5;exitY=0;exitDx=0;exitDy=0;entryX=1;entryY=1;entryDx=0;entryDy=0;fontFamily=Helvetica;" edge="1" parent="1" source="Yi5dwS_RS6isdYSKXxk6-91" target="Yi5dwS_RS6isdYSKXxk6-89">
          <mxGeometry relative="1" as="geometry" />
        </mxCell>
        <mxCell id="Yi5dwS_RS6isdYSKXxk6-91" value="Δεδομενα υγρασιας(%)" style="ellipse;whiteSpace=wrap;html=1;fontFamily=Helvetica;gradientColor=none;" vertex="1" parent="1">
          <mxGeometry x="385" y="810" width="80" height="80" as="geometry" />
        </mxCell>
        <mxCell id="Yi5dwS_RS6isdYSKXxk6-124" style="edgeStyle=orthogonalEdgeStyle;rounded=0;orthogonalLoop=1;jettySize=auto;html=1;exitX=0.5;exitY=0;exitDx=0;exitDy=0;entryX=0.179;entryY=0.72;entryDx=0;entryDy=0;entryPerimeter=0;fontFamily=Helvetica;" edge="1" parent="1" source="Yi5dwS_RS6isdYSKXxk6-92" target="Yi5dwS_RS6isdYSKXxk6-89">
          <mxGeometry relative="1" as="geometry" />
        </mxCell>
        <mxCell id="Yi5dwS_RS6isdYSKXxk6-92" value="Δεδομενα υγρασιας (εκατοπασκαλ)" style="ellipse;whiteSpace=wrap;html=1;fontFamily=Helvetica;gradientColor=none;" vertex="1" parent="1">
          <mxGeometry x="130" y="730" width="110" height="80" as="geometry" />
        </mxCell>
        <mxCell id="Yi5dwS_RS6isdYSKXxk6-144" style="edgeStyle=orthogonalEdgeStyle;rounded=0;orthogonalLoop=1;jettySize=auto;html=1;exitX=0;exitY=0;exitDx=0;exitDy=0;entryX=1;entryY=0.5;entryDx=0;entryDy=0;fontFamily=Helvetica;" edge="1" parent="1" source="Yi5dwS_RS6isdYSKXxk6-143" target="Yi5dwS_RS6isdYSKXxk6-145">
          <mxGeometry relative="1" as="geometry">
            <mxPoint x="-80" y="800" as="targetPoint" />
          </mxGeometry>
        </mxCell>
        <mxCell id="Yi5dwS_RS6isdYSKXxk6-143" value="ονομα" style="ellipse;whiteSpace=wrap;html=1;fontFamily=Helvetica;gradientColor=none;" vertex="1" parent="1">
          <mxGeometry x="-40" y="800" width="80" height="80" as="geometry" />
        </mxCell>
        <mxCell id="Yi5dwS_RS6isdYSKXxk6-145" value="Πυροσβεστικο σωμα" style="rhombus;whiteSpace=wrap;html=1;fontFamily=Helvetica;gradientColor=none;" vertex="1" parent="1">
          <mxGeometry x="-210" y="717.5" width="140" height="105" as="geometry" />
        </mxCell>
      </root>
    </mxGraphModel>
  </diagram>
  <diagram id="CEp1g06nJTZ4KkStksls" name="Σελίδα-2">
    <mxGraphModel dx="4239" dy="1276" grid="1" gridSize="10" guides="1" tooltips="1" connect="1" arrows="1" fold="1" page="1" pageScale="1" pageWidth="827" pageHeight="1169" math="0" shadow="0">
      <root>
        <mxCell id="0" />
        <mxCell id="1" parent="0" />
        <mxCell id="nqCJBH1C47d7dDMXcwwF-1" value="id" style="ellipse;whiteSpace=wrap;html=1;align=center;fontStyle=4;fontFamily=Helvetica;fillColor=#ffe6cc;strokeColor=#d79b00;" vertex="1" parent="1">
          <mxGeometry x="-140" y="290" width="100" height="40" as="geometry" />
        </mxCell>
        <mxCell id="nqCJBH1C47d7dDMXcwwF-2" value="id" style="ellipse;whiteSpace=wrap;html=1;align=center;fontStyle=4;fontFamily=Helvetica;fillColor=#ffe6cc;strokeColor=#d79b00;" vertex="1" parent="1">
          <mxGeometry x="-734" y="135" width="100" height="50" as="geometry" />
        </mxCell>
        <mxCell id="nqCJBH1C47d7dDMXcwwF-3" value="id" style="ellipse;whiteSpace=wrap;html=1;align=center;fontStyle=4;fontFamily=Helvetica;fillColor=#ffe6cc;strokeColor=#d79b00;" vertex="1" parent="1">
          <mxGeometry x="670" y="620" width="100" height="40" as="geometry" />
        </mxCell>
        <mxCell id="nqCJBH1C47d7dDMXcwwF-5" value="Μετερεολογικος σταθμος" style="whiteSpace=wrap;html=1;align=center;fontFamily=Helvetica;gradientColor=none;" vertex="1" parent="1">
          <mxGeometry x="50" y="565" width="100" height="40" as="geometry" />
        </mxCell>
        <mxCell id="YEqpTYaION3zwlGJm5Tn-53" style="edgeStyle=orthogonalEdgeStyle;rounded=0;orthogonalLoop=1;jettySize=auto;html=1;exitX=0.5;exitY=1;exitDx=0;exitDy=0;entryX=0.5;entryY=0;entryDx=0;entryDy=0;fontFamily=Helvetica;" edge="1" parent="1" source="nqCJBH1C47d7dDMXcwwF-6" target="YEqpTYaION3zwlGJm5Tn-52">
          <mxGeometry relative="1" as="geometry" />
        </mxCell>
        <mxCell id="nqCJBH1C47d7dDMXcwwF-6" value="δημος" style="whiteSpace=wrap;html=1;align=center;fontFamily=Helvetica;gradientColor=none;" vertex="1" parent="1">
          <mxGeometry x="50" y="360" width="100" height="40" as="geometry" />
        </mxCell>
        <mxCell id="YEqpTYaION3zwlGJm5Tn-3" value="Πυρκαγια" style="whiteSpace=wrap;html=1;fontFamily=Helvetica;gradientColor=none;" vertex="1" parent="1">
          <mxGeometry x="-690" y="360" width="120" height="40" as="geometry" />
        </mxCell>
        <mxCell id="YEqpTYaION3zwlGJm5Tn-4" value="Δεδομενα" style="whiteSpace=wrap;html=1;fontFamily=Helvetica;gradientColor=none;" vertex="1" parent="1">
          <mxGeometry x="620" y="450" width="120" height="60" as="geometry" />
        </mxCell>
        <mxCell id="YEqpTYaION3zwlGJm5Tn-5" value="id" style="ellipse;whiteSpace=wrap;html=1;align=center;fontStyle=4;fontFamily=Helvetica;fillColor=#ffe6cc;strokeColor=#d79b00;" vertex="1" parent="1">
          <mxGeometry x="20" y="620" width="100" height="40" as="geometry" />
        </mxCell>
        <mxCell id="YEqpTYaION3zwlGJm5Tn-6" value="Ονομα" style="ellipse;whiteSpace=wrap;html=1;align=center;fontFamily=Helvetica;gradientColor=none;" vertex="1" parent="1">
          <mxGeometry x="-904" y="100" width="100" height="40" as="geometry" />
        </mxCell>
        <mxCell id="YEqpTYaION3zwlGJm5Tn-7" value="ωρα εναρξης" style="ellipse;whiteSpace=wrap;html=1;align=center;fontFamily=Helvetica;gradientColor=none;" vertex="1" parent="1">
          <mxGeometry x="-424" y="120" width="100" height="40" as="geometry" />
        </mxCell>
        <mxCell id="YEqpTYaION3zwlGJm5Tn-8" value="ημ/νια εναρξης" style="ellipse;whiteSpace=wrap;html=1;align=center;fontFamily=Helvetica;gradientColor=none;" vertex="1" parent="1">
          <mxGeometry x="-424" y="190" width="100" height="40" as="geometry" />
        </mxCell>
        <mxCell id="YEqpTYaION3zwlGJm5Tn-9" value="ωρα κατασβεσης" style="ellipse;whiteSpace=wrap;html=1;align=center;fontFamily=Helvetica;gradientColor=none;" vertex="1" parent="1">
          <mxGeometry x="-554" y="120" width="100" height="40" as="geometry" />
        </mxCell>
        <mxCell id="YEqpTYaION3zwlGJm5Tn-10" value="ημ/νια κατασβεσης" style="ellipse;whiteSpace=wrap;html=1;align=center;fontFamily=Helvetica;gradientColor=none;" vertex="1" parent="1">
          <mxGeometry x="-554" y="190" width="100" height="40" as="geometry" />
        </mxCell>
        <mxCell id="YEqpTYaION3zwlGJm5Tn-11" value="εκταση" style="ellipse;whiteSpace=wrap;html=1;align=center;fontFamily=Helvetica;gradientColor=none;" vertex="1" parent="1">
          <mxGeometry x="-734" y="225" width="100" height="40" as="geometry" />
        </mxCell>
        <mxCell id="YEqpTYaION3zwlGJm5Tn-12" value="πληθος προσωπικου" style="ellipse;whiteSpace=wrap;html=1;align=center;fontFamily=Helvetica;gradientColor=none;" vertex="1" parent="1">
          <mxGeometry x="-904" y="150" width="100" height="40" as="geometry" />
        </mxCell>
        <mxCell id="YEqpTYaION3zwlGJm5Tn-13" value="οχηματα" style="ellipse;whiteSpace=wrap;html=1;align=center;fontFamily=Helvetica;gradientColor=none;" vertex="1" parent="1">
          <mxGeometry x="-904" y="250" width="100" height="40" as="geometry" />
        </mxCell>
        <mxCell id="YEqpTYaION3zwlGJm5Tn-14" value="εναερια μεσα" style="ellipse;whiteSpace=wrap;html=1;align=center;fontFamily=Helvetica;gradientColor=none;" vertex="1" parent="1">
          <mxGeometry x="-904" y="200" width="100" height="40" as="geometry" />
        </mxCell>
        <mxCell id="YEqpTYaION3zwlGJm5Tn-19" value="ονομα" style="ellipse;whiteSpace=wrap;html=1;align=center;fontFamily=Helvetica;gradientColor=none;" vertex="1" parent="1">
          <mxGeometry x="20" y="180" width="100" height="40" as="geometry" />
        </mxCell>
        <mxCell id="YEqpTYaION3zwlGJm5Tn-20" value="περιφερεια" style="ellipse;whiteSpace=wrap;html=1;align=center;fontFamily=Helvetica;gradientColor=none;" vertex="1" parent="1">
          <mxGeometry x="-140" y="230" width="100" height="40" as="geometry" />
        </mxCell>
        <mxCell id="YEqpTYaION3zwlGJm5Tn-21" value="νομος" style="ellipse;whiteSpace=wrap;html=1;align=center;fontFamily=Helvetica;gradientColor=none;" vertex="1" parent="1">
          <mxGeometry x="130" y="240" width="100" height="40" as="geometry" />
        </mxCell>
        <mxCell id="YEqpTYaION3zwlGJm5Tn-22" value="γ.μηκος" style="ellipse;whiteSpace=wrap;html=1;align=center;fontFamily=Helvetica;gradientColor=none;" vertex="1" parent="1">
          <mxGeometry x="-140" y="120" width="100" height="40" as="geometry" />
        </mxCell>
        <mxCell id="YEqpTYaION3zwlGJm5Tn-23" value="γ. πλατος" style="ellipse;whiteSpace=wrap;html=1;align=center;fontFamily=Helvetica;gradientColor=none;" vertex="1" parent="1">
          <mxGeometry x="-140" y="180" width="100" height="40" as="geometry" />
        </mxCell>
        <mxCell id="YEqpTYaION3zwlGJm5Tn-24" value="ονομα" style="ellipse;whiteSpace=wrap;html=1;align=center;fontFamily=Helvetica;gradientColor=none;" vertex="1" parent="1">
          <mxGeometry x="-120" y="580" width="100" height="40" as="geometry" />
        </mxCell>
        <mxCell id="YEqpTYaION3zwlGJm5Tn-25" value="γ.μηκος" style="ellipse;whiteSpace=wrap;html=1;align=center;fontFamily=Helvetica;gradientColor=none;" vertex="1" parent="1">
          <mxGeometry x="80" y="670" width="100" height="40" as="geometry" />
        </mxCell>
        <mxCell id="YEqpTYaION3zwlGJm5Tn-26" value="γ.πλατος" style="ellipse;whiteSpace=wrap;html=1;align=center;fontFamily=Helvetica;gradientColor=none;" vertex="1" parent="1">
          <mxGeometry x="180" y="630" width="100" height="40" as="geometry" />
        </mxCell>
        <mxCell id="YEqpTYaION3zwlGJm5Tn-27" value="υψομετρο" style="ellipse;whiteSpace=wrap;html=1;align=center;fontFamily=Helvetica;gradientColor=none;" vertex="1" parent="1">
          <mxGeometry x="-80" y="660" width="100" height="40" as="geometry" />
        </mxCell>
        <mxCell id="YEqpTYaION3zwlGJm5Tn-28" value="ελαχιστη θερμοκρασια" style="ellipse;whiteSpace=wrap;html=1;align=center;fontFamily=Helvetica;gradientColor=none;" vertex="1" parent="1">
          <mxGeometry x="860" y="565" width="100" height="40" as="geometry" />
        </mxCell>
        <mxCell id="YEqpTYaION3zwlGJm5Tn-29" value="μεση&amp;nbsp;&lt;br&gt;θερμοκρασια" style="ellipse;whiteSpace=wrap;html=1;align=center;fontFamily=Helvetica;gradientColor=none;" vertex="1" parent="1">
          <mxGeometry x="860" y="620" width="100" height="40" as="geometry" />
        </mxCell>
        <mxCell id="YEqpTYaION3zwlGJm5Tn-30" value="μεγιστη&amp;nbsp;&lt;br&gt;θερμοκρασια" style="ellipse;whiteSpace=wrap;html=1;align=center;fontFamily=Helvetica;gradientColor=none;" vertex="1" parent="1">
          <mxGeometry x="860" y="670" width="100" height="40" as="geometry" />
        </mxCell>
        <mxCell id="YEqpTYaION3zwlGJm5Tn-31" value="ημ/νια&amp;nbsp;" style="ellipse;whiteSpace=wrap;html=1;align=center;fontFamily=Helvetica;gradientColor=none;" vertex="1" parent="1">
          <mxGeometry x="980" y="500" width="100" height="40" as="geometry" />
        </mxCell>
        <mxCell id="YEqpTYaION3zwlGJm5Tn-32" value="ελαχιστη πιεση" style="ellipse;whiteSpace=wrap;html=1;align=center;fontFamily=Helvetica;gradientColor=none;" vertex="1" parent="1">
          <mxGeometry x="980" y="565" width="100" height="40" as="geometry" />
        </mxCell>
        <mxCell id="YEqpTYaION3zwlGJm5Tn-33" value="μεση πιεση" style="ellipse;whiteSpace=wrap;html=1;align=center;fontFamily=Helvetica;gradientColor=none;" vertex="1" parent="1">
          <mxGeometry x="980" y="620" width="100" height="40" as="geometry" />
        </mxCell>
        <mxCell id="YEqpTYaION3zwlGJm5Tn-34" value="μεγιστη πιεση" style="ellipse;whiteSpace=wrap;html=1;align=center;fontFamily=Helvetica;gradientColor=none;" vertex="1" parent="1">
          <mxGeometry x="980" y="670" width="100" height="40" as="geometry" />
        </mxCell>
        <mxCell id="YEqpTYaION3zwlGJm5Tn-35" value="μεση υγρασια" style="ellipse;whiteSpace=wrap;html=1;align=center;fontFamily=Helvetica;gradientColor=none;" vertex="1" parent="1">
          <mxGeometry x="1130" y="610" width="100" height="40" as="geometry" />
        </mxCell>
        <mxCell id="YEqpTYaION3zwlGJm5Tn-36" value="μεγιστη υγρασια" style="ellipse;whiteSpace=wrap;html=1;align=center;fontFamily=Helvetica;gradientColor=none;" vertex="1" parent="1">
          <mxGeometry x="1130" y="670" width="100" height="40" as="geometry" />
        </mxCell>
        <mxCell id="YEqpTYaION3zwlGJm5Tn-37" value="ελαχιστη υγρασια" style="ellipse;whiteSpace=wrap;html=1;align=center;fontFamily=Helvetica;gradientColor=none;" vertex="1" parent="1">
          <mxGeometry x="1130" y="560" width="100" height="40" as="geometry" />
        </mxCell>
        <mxCell id="YEqpTYaION3zwlGJm5Tn-38" value="ημερισια βροχοπτωση" style="ellipse;whiteSpace=wrap;html=1;align=center;fontFamily=Helvetica;gradientColor=none;" vertex="1" parent="1">
          <mxGeometry x="1260" y="560" width="100" height="40" as="geometry" />
        </mxCell>
        <mxCell id="YEqpTYaION3zwlGJm5Tn-39" value="διευθηνση ανεμου" style="ellipse;whiteSpace=wrap;html=1;align=center;fontFamily=Helvetica;gradientColor=none;" vertex="1" parent="1">
          <mxGeometry x="1260" y="620" width="100" height="40" as="geometry" />
        </mxCell>
        <mxCell id="YEqpTYaION3zwlGJm5Tn-40" value="μεγ. ριπη ανεμου" style="ellipse;whiteSpace=wrap;html=1;align=center;fontFamily=Helvetica;gradientColor=none;" vertex="1" parent="1">
          <mxGeometry x="1260" y="690" width="100" height="40" as="geometry" />
        </mxCell>
        <mxCell id="YEqpTYaION3zwlGJm5Tn-41" value="μεγιστη ταχυτητα ανεμου" style="ellipse;whiteSpace=wrap;html=1;align=center;fontFamily=Helvetica;gradientColor=none;" vertex="1" parent="1">
          <mxGeometry x="1260" y="760" width="100" height="40" as="geometry" />
        </mxCell>
        <mxCell id="YEqpTYaION3zwlGJm5Tn-51" style="edgeStyle=orthogonalEdgeStyle;rounded=0;orthogonalLoop=1;jettySize=auto;html=1;exitX=1;exitY=0.5;exitDx=0;exitDy=0;fontFamily=Helvetica;" edge="1" parent="1" source="YEqpTYaION3zwlGJm5Tn-45" target="nqCJBH1C47d7dDMXcwwF-6">
          <mxGeometry relative="1" as="geometry" />
        </mxCell>
        <mxCell id="YEqpTYaION3zwlGJm5Tn-45" value="Εκδηλωθηκε" style="shape=rhombus;perimeter=rhombusPerimeter;whiteSpace=wrap;html=1;align=center;fontFamily=Helvetica;gradientColor=none;" vertex="1" parent="1">
          <mxGeometry x="-390" y="350" width="120" height="60" as="geometry" />
        </mxCell>
        <mxCell id="YEqpTYaION3zwlGJm5Tn-52" value="Εχει" style="shape=rhombus;perimeter=rhombusPerimeter;whiteSpace=wrap;html=1;align=center;fontFamily=Helvetica;gradientColor=none;" vertex="1" parent="1">
          <mxGeometry x="40" y="450" width="120" height="60" as="geometry" />
        </mxCell>
        <mxCell id="YEqpTYaION3zwlGJm5Tn-62" value="" style="endArrow=none;html=1;rounded=0;fontFamily=Helvetica;shape=link;entryX=0;entryY=0.5;entryDx=0;entryDy=0;exitX=1;exitY=0.5;exitDx=0;exitDy=0;" edge="1" parent="1" source="YEqpTYaION3zwlGJm5Tn-3" target="YEqpTYaION3zwlGJm5Tn-45">
          <mxGeometry relative="1" as="geometry">
            <mxPoint x="-530" y="410" as="sourcePoint" />
            <mxPoint x="-410" y="379.5" as="targetPoint" />
          </mxGeometry>
        </mxCell>
        <mxCell id="YEqpTYaION3zwlGJm5Tn-63" value="" style="endArrow=none;html=1;rounded=0;fontFamily=Helvetica;shape=link;exitX=0.5;exitY=0;exitDx=0;exitDy=0;" edge="1" parent="1" source="nqCJBH1C47d7dDMXcwwF-5" target="YEqpTYaION3zwlGJm5Tn-52">
          <mxGeometry relative="1" as="geometry">
            <mxPoint x="-320" y="530" as="sourcePoint" />
            <mxPoint x="-160" y="530" as="targetPoint" />
          </mxGeometry>
        </mxCell>
        <mxCell id="YEqpTYaION3zwlGJm5Tn-65" value="Δημιουργηθηκαν" style="shape=rhombus;perimeter=rhombusPerimeter;whiteSpace=wrap;html=1;align=center;fontFamily=Helvetica;gradientColor=none;" vertex="1" parent="1">
          <mxGeometry x="320" y="450" width="120" height="60" as="geometry" />
        </mxCell>
        <mxCell id="YEqpTYaION3zwlGJm5Tn-66" value="" style="line;strokeWidth=1;rotatable=0;dashed=0;labelPosition=right;align=left;verticalAlign=middle;spacingTop=0;spacingLeft=6;points=[];portConstraint=eastwest;fontFamily=Helvetica;gradientColor=none;" vertex="1" parent="1">
          <mxGeometry x="440" y="475" width="180" height="10" as="geometry" />
        </mxCell>
        <mxCell id="YEqpTYaION3zwlGJm5Tn-69" value="" style="line;strokeWidth=1;rotatable=0;dashed=0;labelPosition=right;align=left;verticalAlign=middle;spacingTop=0;spacingLeft=6;points=[];portConstraint=eastwest;fontFamily=Helvetica;gradientColor=none;" vertex="1" parent="1">
          <mxGeometry x="160" y="475" width="160" height="10" as="geometry" />
        </mxCell>
      </root>
    </mxGraphModel>
  </diagram>
  <diagram id="pjmOD3NZVnfE4kXFKRlY" name="Σελίδα-3">
    <mxGraphModel dx="1673" dy="826" grid="1" gridSize="10" guides="1" tooltips="1" connect="1" arrows="1" fold="1" page="1" pageScale="1" pageWidth="827" pageHeight="1169" math="0" shadow="0">
      <root>
        <mxCell id="0" />
        <mxCell id="1" parent="0" />
        <mxCell id="uHv4ISglJeCQrf6ZQmay-1" value="id" style="ellipse;whiteSpace=wrap;html=1;align=center;fontStyle=4;fontFamily=Helvetica;fillColor=#ffe6cc;strokeColor=#d79b00;" vertex="1" parent="1">
          <mxGeometry x="1024" y="570" width="100" height="40" as="geometry" />
        </mxCell>
        <mxCell id="uHv4ISglJeCQrf6ZQmay-2" value="id" style="ellipse;whiteSpace=wrap;html=1;align=center;fontStyle=4;fontFamily=Helvetica;fillColor=#ffe6cc;strokeColor=#d79b00;" vertex="1" parent="1">
          <mxGeometry x="430" y="415" width="100" height="50" as="geometry" />
        </mxCell>
        <mxCell id="uHv4ISglJeCQrf6ZQmay-3" value="id" style="ellipse;whiteSpace=wrap;html=1;align=center;fontStyle=4;fontFamily=Helvetica;fillColor=#ffe6cc;strokeColor=#d79b00;" vertex="1" parent="1">
          <mxGeometry x="1760" y="630" width="100" height="40" as="geometry" />
        </mxCell>
        <mxCell id="uHv4ISglJeCQrf6ZQmay-4" value="Μετερεολογικος σταθμος" style="whiteSpace=wrap;html=1;align=center;fontFamily=Helvetica;fillColor=#cdeb8b;strokeColor=#36393d;" vertex="1" parent="1">
          <mxGeometry x="1214" y="845" width="100" height="40" as="geometry" />
        </mxCell>
        <mxCell id="uHv4ISglJeCQrf6ZQmay-5" style="edgeStyle=orthogonalEdgeStyle;rounded=0;orthogonalLoop=1;jettySize=auto;html=1;exitX=0.5;exitY=1;exitDx=0;exitDy=0;entryX=0.5;entryY=0;entryDx=0;entryDy=0;fontFamily=Helvetica;" edge="1" source="uHv4ISglJeCQrf6ZQmay-6" target="uHv4ISglJeCQrf6ZQmay-44" parent="1">
          <mxGeometry relative="1" as="geometry" />
        </mxCell>
        <mxCell id="uHv4ISglJeCQrf6ZQmay-6" value="δημος" style="whiteSpace=wrap;html=1;align=center;fontFamily=Helvetica;fillColor=#cdeb8b;strokeColor=#36393d;" vertex="1" parent="1">
          <mxGeometry x="1214" y="640" width="100" height="40" as="geometry" />
        </mxCell>
        <mxCell id="uHv4ISglJeCQrf6ZQmay-7" value="Πυρκαγια" style="whiteSpace=wrap;html=1;fontFamily=Helvetica;fillColor=#cdeb8b;strokeColor=#36393d;" vertex="1" parent="1">
          <mxGeometry x="474" y="640" width="120" height="40" as="geometry" />
        </mxCell>
        <mxCell id="uHv4ISglJeCQrf6ZQmay-8" value="Δεδομενα" style="whiteSpace=wrap;html=1;fontFamily=Helvetica;fillColor=#cdeb8b;strokeColor=#36393d;" vertex="1" parent="1">
          <mxGeometry x="1800" y="730" width="120" height="60" as="geometry" />
        </mxCell>
        <mxCell id="uHv4ISglJeCQrf6ZQmay-9" value="id" style="ellipse;whiteSpace=wrap;html=1;align=center;fontStyle=4;fontFamily=Helvetica;fillColor=#ffe6cc;strokeColor=#d79b00;" vertex="1" parent="1">
          <mxGeometry x="1084" y="920" width="100" height="40" as="geometry" />
        </mxCell>
        <mxCell id="uHv4ISglJeCQrf6ZQmay-10" value="Ονομα" style="ellipse;whiteSpace=wrap;html=1;align=center;fontFamily=Helvetica;gradientColor=none;" vertex="1" parent="1">
          <mxGeometry x="260" y="380" width="100" height="40" as="geometry" />
        </mxCell>
        <mxCell id="uHv4ISglJeCQrf6ZQmay-11" value="ωρα εναρξης" style="ellipse;whiteSpace=wrap;html=1;align=center;fontFamily=Helvetica;gradientColor=none;" vertex="1" parent="1">
          <mxGeometry x="740" y="400" width="100" height="40" as="geometry" />
        </mxCell>
        <mxCell id="uHv4ISglJeCQrf6ZQmay-12" value="ημ/νια εναρξης" style="ellipse;whiteSpace=wrap;html=1;align=center;fontFamily=Helvetica;gradientColor=none;" vertex="1" parent="1">
          <mxGeometry x="740" y="470" width="100" height="40" as="geometry" />
        </mxCell>
        <mxCell id="uHv4ISglJeCQrf6ZQmay-13" value="ωρα κατασβεσης" style="ellipse;whiteSpace=wrap;html=1;align=center;fontFamily=Helvetica;gradientColor=none;" vertex="1" parent="1">
          <mxGeometry x="610" y="400" width="100" height="40" as="geometry" />
        </mxCell>
        <mxCell id="uHv4ISglJeCQrf6ZQmay-14" value="ημ/νια κατασβεσης" style="ellipse;whiteSpace=wrap;html=1;align=center;fontFamily=Helvetica;gradientColor=none;" vertex="1" parent="1">
          <mxGeometry x="610" y="470" width="100" height="40" as="geometry" />
        </mxCell>
        <mxCell id="uHv4ISglJeCQrf6ZQmay-15" value="εκταση" style="ellipse;whiteSpace=wrap;html=1;align=center;fontFamily=Helvetica;gradientColor=none;" vertex="1" parent="1">
          <mxGeometry x="430" y="505" width="100" height="40" as="geometry" />
        </mxCell>
        <mxCell id="uHv4ISglJeCQrf6ZQmay-16" value="πληθος προσωπικου" style="ellipse;whiteSpace=wrap;html=1;align=center;fontFamily=Helvetica;gradientColor=none;" vertex="1" parent="1">
          <mxGeometry x="260" y="430" width="100" height="40" as="geometry" />
        </mxCell>
        <mxCell id="uHv4ISglJeCQrf6ZQmay-17" value="οχηματα" style="ellipse;whiteSpace=wrap;html=1;align=center;fontFamily=Helvetica;gradientColor=none;" vertex="1" parent="1">
          <mxGeometry x="260" y="530" width="100" height="40" as="geometry" />
        </mxCell>
        <mxCell id="uHv4ISglJeCQrf6ZQmay-18" value="εναερια μεσα" style="ellipse;whiteSpace=wrap;html=1;align=center;fontFamily=Helvetica;gradientColor=none;" vertex="1" parent="1">
          <mxGeometry x="260" y="480" width="100" height="40" as="geometry" />
        </mxCell>
        <mxCell id="uHv4ISglJeCQrf6ZQmay-19" value="ονομα" style="ellipse;whiteSpace=wrap;html=1;align=center;fontFamily=Helvetica;gradientColor=none;" vertex="1" parent="1">
          <mxGeometry x="1184" y="460" width="100" height="40" as="geometry" />
        </mxCell>
        <mxCell id="uHv4ISglJeCQrf6ZQmay-20" value="περιφερεια" style="ellipse;whiteSpace=wrap;html=1;align=center;fontFamily=Helvetica;gradientColor=none;" vertex="1" parent="1">
          <mxGeometry x="1024" y="510" width="100" height="40" as="geometry" />
        </mxCell>
        <mxCell id="uHv4ISglJeCQrf6ZQmay-21" value="νομος" style="ellipse;whiteSpace=wrap;html=1;align=center;fontFamily=Helvetica;gradientColor=none;" vertex="1" parent="1">
          <mxGeometry x="1294" y="520" width="100" height="40" as="geometry" />
        </mxCell>
        <mxCell id="uHv4ISglJeCQrf6ZQmay-22" value="γ.μηκος" style="ellipse;whiteSpace=wrap;html=1;align=center;fontFamily=Helvetica;gradientColor=none;" vertex="1" parent="1">
          <mxGeometry x="1024" y="400" width="100" height="40" as="geometry" />
        </mxCell>
        <mxCell id="uHv4ISglJeCQrf6ZQmay-23" value="γ. πλατος" style="ellipse;whiteSpace=wrap;html=1;align=center;fontFamily=Helvetica;gradientColor=none;" vertex="1" parent="1">
          <mxGeometry x="1024" y="460" width="100" height="40" as="geometry" />
        </mxCell>
        <mxCell id="uHv4ISglJeCQrf6ZQmay-24" value="ονομα" style="ellipse;whiteSpace=wrap;html=1;align=center;fontFamily=Helvetica;gradientColor=none;" vertex="1" parent="1">
          <mxGeometry x="1044" y="860" width="100" height="40" as="geometry" />
        </mxCell>
        <mxCell id="uHv4ISglJeCQrf6ZQmay-25" value="γ.μηκος" style="ellipse;whiteSpace=wrap;html=1;align=center;fontFamily=Helvetica;gradientColor=none;" vertex="1" parent="1">
          <mxGeometry x="1260" y="1070" width="100" height="40" as="geometry" />
        </mxCell>
        <mxCell id="uHv4ISglJeCQrf6ZQmay-26" value="γ.πλατος" style="ellipse;whiteSpace=wrap;html=1;align=center;fontFamily=Helvetica;gradientColor=none;" vertex="1" parent="1">
          <mxGeometry x="1394" y="1070" width="100" height="40" as="geometry" />
        </mxCell>
        <mxCell id="uHv4ISglJeCQrf6ZQmay-27" value="υψομετρο" style="ellipse;whiteSpace=wrap;html=1;align=center;fontFamily=Helvetica;gradientColor=none;" vertex="1" parent="1">
          <mxGeometry x="1150" y="990" width="100" height="40" as="geometry" />
        </mxCell>
        <mxCell id="uHv4ISglJeCQrf6ZQmay-28" value="ελαχιστη θερμοκρασια" style="ellipse;whiteSpace=wrap;html=1;align=center;fontFamily=Helvetica;gradientColor=none;" vertex="1" parent="1">
          <mxGeometry x="2174" y="765" width="100" height="40" as="geometry" />
        </mxCell>
        <mxCell id="uHv4ISglJeCQrf6ZQmay-29" value="μεση&amp;nbsp;&lt;br&gt;θερμοκρασια" style="ellipse;whiteSpace=wrap;html=1;align=center;fontFamily=Helvetica;gradientColor=none;" vertex="1" parent="1">
          <mxGeometry x="2174" y="820" width="100" height="40" as="geometry" />
        </mxCell>
        <mxCell id="uHv4ISglJeCQrf6ZQmay-30" value="μεγιστη&amp;nbsp;&lt;br&gt;θερμοκρασια" style="ellipse;whiteSpace=wrap;html=1;align=center;fontFamily=Helvetica;gradientColor=none;" vertex="1" parent="1">
          <mxGeometry x="2174" y="870" width="100" height="40" as="geometry" />
        </mxCell>
        <mxCell id="uHv4ISglJeCQrf6ZQmay-31" value="ημ/νια&amp;nbsp;" style="ellipse;whiteSpace=wrap;html=1;align=center;fontFamily=Helvetica;gradientColor=none;" vertex="1" parent="1">
          <mxGeometry x="1890" y="605" width="100" height="40" as="geometry" />
        </mxCell>
        <mxCell id="uHv4ISglJeCQrf6ZQmay-32" value="ελαχιστη πιεση" style="ellipse;whiteSpace=wrap;html=1;align=center;fontFamily=Helvetica;gradientColor=none;" vertex="1" parent="1">
          <mxGeometry x="2030" y="610" width="100" height="40" as="geometry" />
        </mxCell>
        <mxCell id="uHv4ISglJeCQrf6ZQmay-33" value="μεση πιεση" style="ellipse;whiteSpace=wrap;html=1;align=center;fontFamily=Helvetica;gradientColor=none;" vertex="1" parent="1">
          <mxGeometry x="2124" y="650" width="100" height="40" as="geometry" />
        </mxCell>
        <mxCell id="uHv4ISglJeCQrf6ZQmay-34" value="μεγιστη πιεση" style="ellipse;whiteSpace=wrap;html=1;align=center;fontFamily=Helvetica;gradientColor=none;" vertex="1" parent="1">
          <mxGeometry x="2144" y="710" width="100" height="40" as="geometry" />
        </mxCell>
        <mxCell id="uHv4ISglJeCQrf6ZQmay-35" value="μεση υγρασια" style="ellipse;whiteSpace=wrap;html=1;align=center;fontFamily=Helvetica;gradientColor=none;" vertex="1" parent="1">
          <mxGeometry x="2000" y="970" width="100" height="40" as="geometry" />
        </mxCell>
        <mxCell id="uHv4ISglJeCQrf6ZQmay-36" value="μεγιστη υγρασια" style="ellipse;whiteSpace=wrap;html=1;align=center;fontFamily=Helvetica;gradientColor=none;" vertex="1" parent="1">
          <mxGeometry x="1882" y="1000" width="100" height="40" as="geometry" />
        </mxCell>
        <mxCell id="uHv4ISglJeCQrf6ZQmay-37" value="ελαχιστη υγρασια" style="ellipse;whiteSpace=wrap;html=1;align=center;fontFamily=Helvetica;gradientColor=none;" vertex="1" parent="1">
          <mxGeometry x="2130" y="950" width="100" height="40" as="geometry" />
        </mxCell>
        <mxCell id="uHv4ISglJeCQrf6ZQmay-38" value="ημερισια βροχοπτωση" style="ellipse;whiteSpace=wrap;html=1;align=center;fontFamily=Helvetica;gradientColor=none;" vertex="1" parent="1">
          <mxGeometry x="1660" y="680" width="100" height="40" as="geometry" />
        </mxCell>
        <mxCell id="uHv4ISglJeCQrf6ZQmay-39" value="διευθηνση ανεμου" style="ellipse;whiteSpace=wrap;html=1;align=center;fontFamily=Helvetica;gradientColor=none;" vertex="1" parent="1">
          <mxGeometry x="1504" y="990" width="100" height="40" as="geometry" />
        </mxCell>
        <mxCell id="uHv4ISglJeCQrf6ZQmay-40" value="μεγ. ριπη ανεμου" style="ellipse;whiteSpace=wrap;html=1;align=center;fontFamily=Helvetica;gradientColor=none;" vertex="1" parent="1">
          <mxGeometry x="1620" y="1000" width="100" height="40" as="geometry" />
        </mxCell>
        <mxCell id="uHv4ISglJeCQrf6ZQmay-41" value="μεγιστη ταχυτητα ανεμου" style="ellipse;whiteSpace=wrap;html=1;align=center;fontFamily=Helvetica;gradientColor=none;" vertex="1" parent="1">
          <mxGeometry x="1760" y="1000" width="100" height="40" as="geometry" />
        </mxCell>
        <mxCell id="uHv4ISglJeCQrf6ZQmay-42" style="edgeStyle=orthogonalEdgeStyle;rounded=0;orthogonalLoop=1;jettySize=auto;html=1;exitX=1;exitY=0.5;exitDx=0;exitDy=0;fontFamily=Helvetica;" edge="1" source="uHv4ISglJeCQrf6ZQmay-43" target="uHv4ISglJeCQrf6ZQmay-6" parent="1">
          <mxGeometry relative="1" as="geometry" />
        </mxCell>
        <mxCell id="uHv4ISglJeCQrf6ZQmay-43" value="Εκδηλωθηκε" style="shape=rhombus;perimeter=rhombusPerimeter;whiteSpace=wrap;html=1;align=center;fontFamily=Helvetica;fillColor=#e1d5e7;strokeColor=#9673a6;" vertex="1" parent="1">
          <mxGeometry x="774" y="630" width="120" height="60" as="geometry" />
        </mxCell>
        <mxCell id="uHv4ISglJeCQrf6ZQmay-44" value="Εχει" style="shape=rhombus;perimeter=rhombusPerimeter;whiteSpace=wrap;html=1;align=center;fontFamily=Helvetica;fillColor=#e1d5e7;strokeColor=#9673a6;" vertex="1" parent="1">
          <mxGeometry x="1204" y="730" width="120" height="60" as="geometry" />
        </mxCell>
        <mxCell id="uHv4ISglJeCQrf6ZQmay-45" value="" style="endArrow=none;html=1;rounded=0;fontFamily=Helvetica;shape=link;entryX=0;entryY=0.5;entryDx=0;entryDy=0;exitX=1;exitY=0.5;exitDx=0;exitDy=0;" edge="1" source="uHv4ISglJeCQrf6ZQmay-7" target="uHv4ISglJeCQrf6ZQmay-43" parent="1">
          <mxGeometry relative="1" as="geometry">
            <mxPoint x="634" y="690" as="sourcePoint" />
            <mxPoint x="754" y="659.5" as="targetPoint" />
          </mxGeometry>
        </mxCell>
        <mxCell id="uHv4ISglJeCQrf6ZQmay-46" value="" style="endArrow=none;html=1;rounded=0;fontFamily=Helvetica;shape=link;exitX=0.5;exitY=0;exitDx=0;exitDy=0;" edge="1" source="uHv4ISglJeCQrf6ZQmay-4" target="uHv4ISglJeCQrf6ZQmay-44" parent="1">
          <mxGeometry relative="1" as="geometry">
            <mxPoint x="844" y="810" as="sourcePoint" />
            <mxPoint x="1004" y="810" as="targetPoint" />
          </mxGeometry>
        </mxCell>
        <mxCell id="uHv4ISglJeCQrf6ZQmay-47" value="Δημιουργηθηκαν" style="shape=rhombus;perimeter=rhombusPerimeter;whiteSpace=wrap;html=1;align=center;fontFamily=Helvetica;fillColor=#e1d5e7;strokeColor=#9673a6;" vertex="1" parent="1">
          <mxGeometry x="1484" y="730" width="120" height="60" as="geometry" />
        </mxCell>
        <mxCell id="uHv4ISglJeCQrf6ZQmay-49" value="" style="line;strokeWidth=1;rotatable=0;dashed=0;labelPosition=right;align=left;verticalAlign=middle;spacingTop=0;spacingLeft=6;points=[];portConstraint=eastwest;fontFamily=Helvetica;gradientColor=none;" vertex="1" parent="1">
          <mxGeometry x="1324" y="755" width="160" height="10" as="geometry" />
        </mxCell>
        <mxCell id="KVw1wgc0Hjny8Czt4P6F-1" value="πιεση" style="ellipse;whiteSpace=wrap;html=1;align=center;fontFamily=Helvetica;gradientColor=none;" vertex="1" parent="1">
          <mxGeometry x="1968" y="710" width="100" height="40" as="geometry" />
        </mxCell>
        <mxCell id="KVw1wgc0Hjny8Czt4P6F-2" value="ανεμος" style="ellipse;whiteSpace=wrap;html=1;align=center;fontFamily=Helvetica;gradientColor=none;" vertex="1" parent="1">
          <mxGeometry x="1680" y="860" width="100" height="40" as="geometry" />
        </mxCell>
        <mxCell id="KVw1wgc0Hjny8Czt4P6F-3" value="υγρασια" style="ellipse;whiteSpace=wrap;html=1;align=center;fontFamily=Helvetica;gradientColor=none;" vertex="1" parent="1">
          <mxGeometry x="1882" y="870" width="100" height="40" as="geometry" />
        </mxCell>
        <mxCell id="KVw1wgc0Hjny8Czt4P6F-4" value="Θερμοκρασια" style="ellipse;whiteSpace=wrap;html=1;align=center;fontFamily=Helvetica;gradientColor=none;" vertex="1" parent="1">
          <mxGeometry x="1990" y="802.5" width="100" height="40" as="geometry" />
        </mxCell>
        <mxCell id="KVw1wgc0Hjny8Czt4P6F-11" value="" style="endArrow=none;html=1;rounded=0;fontFamily=Helvetica;exitX=0;exitY=0.5;exitDx=0;exitDy=0;entryX=0.942;entryY=0.483;entryDx=0;entryDy=0;entryPerimeter=0;" edge="1" parent="1" source="uHv4ISglJeCQrf6ZQmay-8" target="uHv4ISglJeCQrf6ZQmay-47">
          <mxGeometry relative="1" as="geometry">
            <mxPoint x="1710" y="759.5" as="sourcePoint" />
            <mxPoint x="1630" y="759.5" as="targetPoint" />
          </mxGeometry>
        </mxCell>
        <mxCell id="KVw1wgc0Hjny8Czt4P6F-13" value="" style="endArrow=none;html=1;rounded=0;fontFamily=Helvetica;entryX=0;entryY=1;entryDx=0;entryDy=0;exitX=0.42;exitY=0.025;exitDx=0;exitDy=0;exitPerimeter=0;" edge="1" parent="1" source="KVw1wgc0Hjny8Czt4P6F-1" target="uHv4ISglJeCQrf6ZQmay-32">
          <mxGeometry relative="1" as="geometry">
            <mxPoint x="1882" y="690" as="sourcePoint" />
            <mxPoint x="2042" y="690" as="targetPoint" />
          </mxGeometry>
        </mxCell>
        <mxCell id="KVw1wgc0Hjny8Czt4P6F-14" value="" style="endArrow=none;html=1;rounded=0;fontFamily=Helvetica;exitX=1;exitY=0;exitDx=0;exitDy=0;entryX=0;entryY=0.5;entryDx=0;entryDy=0;" edge="1" parent="1" source="KVw1wgc0Hjny8Czt4P6F-1" target="uHv4ISglJeCQrf6ZQmay-33">
          <mxGeometry relative="1" as="geometry">
            <mxPoint x="2180" y="850" as="sourcePoint" />
            <mxPoint x="2340" y="850" as="targetPoint" />
          </mxGeometry>
        </mxCell>
        <mxCell id="KVw1wgc0Hjny8Czt4P6F-15" value="" style="endArrow=none;html=1;rounded=0;fontFamily=Helvetica;exitX=1;exitY=0.5;exitDx=0;exitDy=0;entryX=0;entryY=0.5;entryDx=0;entryDy=0;" edge="1" parent="1" source="KVw1wgc0Hjny8Czt4P6F-1" target="uHv4ISglJeCQrf6ZQmay-34">
          <mxGeometry relative="1" as="geometry">
            <mxPoint x="2180" y="850" as="sourcePoint" />
            <mxPoint x="2340" y="850" as="targetPoint" />
          </mxGeometry>
        </mxCell>
        <mxCell id="KVw1wgc0Hjny8Czt4P6F-16" value="" style="endArrow=none;html=1;rounded=0;fontFamily=Helvetica;exitX=1;exitY=0;exitDx=0;exitDy=0;entryX=0;entryY=0.5;entryDx=0;entryDy=0;" edge="1" parent="1" source="KVw1wgc0Hjny8Czt4P6F-4" target="uHv4ISglJeCQrf6ZQmay-28">
          <mxGeometry relative="1" as="geometry">
            <mxPoint x="2180" y="850" as="sourcePoint" />
            <mxPoint x="2340" y="850" as="targetPoint" />
          </mxGeometry>
        </mxCell>
        <mxCell id="KVw1wgc0Hjny8Czt4P6F-17" value="" style="endArrow=none;html=1;rounded=0;fontFamily=Helvetica;exitX=1;exitY=0.5;exitDx=0;exitDy=0;entryX=0;entryY=0.5;entryDx=0;entryDy=0;" edge="1" parent="1" source="KVw1wgc0Hjny8Czt4P6F-4" target="uHv4ISglJeCQrf6ZQmay-29">
          <mxGeometry relative="1" as="geometry">
            <mxPoint x="2180" y="850" as="sourcePoint" />
            <mxPoint x="2340" y="850" as="targetPoint" />
          </mxGeometry>
        </mxCell>
        <mxCell id="KVw1wgc0Hjny8Czt4P6F-18" value="" style="endArrow=none;html=1;rounded=0;fontFamily=Helvetica;exitX=1;exitY=0.5;exitDx=0;exitDy=0;entryX=0;entryY=0;entryDx=0;entryDy=0;" edge="1" parent="1" source="KVw1wgc0Hjny8Czt4P6F-3" target="uHv4ISglJeCQrf6ZQmay-37">
          <mxGeometry relative="1" as="geometry">
            <mxPoint x="2180" y="850" as="sourcePoint" />
            <mxPoint x="2340" y="850" as="targetPoint" />
          </mxGeometry>
        </mxCell>
        <mxCell id="KVw1wgc0Hjny8Czt4P6F-19" value="" style="endArrow=none;html=1;rounded=0;fontFamily=Helvetica;exitX=1;exitY=1;exitDx=0;exitDy=0;entryX=0.5;entryY=0;entryDx=0;entryDy=0;" edge="1" parent="1" source="KVw1wgc0Hjny8Czt4P6F-3" target="uHv4ISglJeCQrf6ZQmay-35">
          <mxGeometry relative="1" as="geometry">
            <mxPoint x="1990" y="850" as="sourcePoint" />
            <mxPoint x="2150" y="850" as="targetPoint" />
          </mxGeometry>
        </mxCell>
        <mxCell id="KVw1wgc0Hjny8Czt4P6F-20" value="" style="endArrow=none;html=1;rounded=0;fontFamily=Helvetica;exitX=0.5;exitY=1;exitDx=0;exitDy=0;entryX=0.5;entryY=0;entryDx=0;entryDy=0;" edge="1" parent="1" source="KVw1wgc0Hjny8Czt4P6F-3" target="uHv4ISglJeCQrf6ZQmay-36">
          <mxGeometry relative="1" as="geometry">
            <mxPoint x="1990" y="850" as="sourcePoint" />
            <mxPoint x="2150" y="850" as="targetPoint" />
          </mxGeometry>
        </mxCell>
        <mxCell id="KVw1wgc0Hjny8Czt4P6F-21" value="" style="endArrow=none;html=1;rounded=0;fontFamily=Helvetica;exitX=0.93;exitY=0.9;exitDx=0;exitDy=0;entryX=0.8;entryY=0;entryDx=0;entryDy=0;entryPerimeter=0;exitPerimeter=0;" edge="1" parent="1" source="KVw1wgc0Hjny8Czt4P6F-2" target="uHv4ISglJeCQrf6ZQmay-41">
          <mxGeometry relative="1" as="geometry">
            <mxPoint x="1990" y="850" as="sourcePoint" />
            <mxPoint x="2150" y="850" as="targetPoint" />
          </mxGeometry>
        </mxCell>
        <mxCell id="KVw1wgc0Hjny8Czt4P6F-24" value="" style="endArrow=none;html=1;rounded=0;fontFamily=Helvetica;entryX=0.04;entryY=0.325;entryDx=0;entryDy=0;entryPerimeter=0;" edge="1" parent="1" source="KVw1wgc0Hjny8Czt4P6F-4" target="uHv4ISglJeCQrf6ZQmay-30">
          <mxGeometry relative="1" as="geometry">
            <mxPoint x="1990" y="850" as="sourcePoint" />
            <mxPoint x="2150" y="850" as="targetPoint" />
          </mxGeometry>
        </mxCell>
        <mxCell id="KVw1wgc0Hjny8Czt4P6F-25" value="" style="endArrow=none;html=1;rounded=0;fontFamily=Helvetica;exitX=0.5;exitY=1;exitDx=0;exitDy=0;entryX=1;entryY=0;entryDx=0;entryDy=0;" edge="1" parent="1" source="KVw1wgc0Hjny8Czt4P6F-2" target="uHv4ISglJeCQrf6ZQmay-40">
          <mxGeometry relative="1" as="geometry">
            <mxPoint x="1990" y="850" as="sourcePoint" />
            <mxPoint x="2150" y="850" as="targetPoint" />
          </mxGeometry>
        </mxCell>
        <mxCell id="KVw1wgc0Hjny8Czt4P6F-26" value="" style="endArrow=none;html=1;rounded=0;fontFamily=Helvetica;exitX=0;exitY=1;exitDx=0;exitDy=0;entryX=0.76;entryY=0;entryDx=0;entryDy=0;entryPerimeter=0;" edge="1" parent="1" source="KVw1wgc0Hjny8Czt4P6F-2" target="uHv4ISglJeCQrf6ZQmay-39">
          <mxGeometry relative="1" as="geometry">
            <mxPoint x="1990" y="850" as="sourcePoint" />
            <mxPoint x="2150" y="850" as="targetPoint" />
          </mxGeometry>
        </mxCell>
        <mxCell id="KVw1wgc0Hjny8Czt4P6F-27" value="" style="endArrow=none;html=1;rounded=0;fontFamily=Helvetica;exitX=0.5;exitY=0;exitDx=0;exitDy=0;entryX=0.25;entryY=1;entryDx=0;entryDy=0;" edge="1" parent="1" source="KVw1wgc0Hjny8Czt4P6F-2" target="uHv4ISglJeCQrf6ZQmay-8">
          <mxGeometry relative="1" as="geometry">
            <mxPoint x="1760" y="850" as="sourcePoint" />
            <mxPoint x="1920" y="850" as="targetPoint" />
          </mxGeometry>
        </mxCell>
        <mxCell id="KVw1wgc0Hjny8Czt4P6F-28" value="" style="endArrow=none;html=1;rounded=0;fontFamily=Helvetica;exitX=0.5;exitY=1;exitDx=0;exitDy=0;entryX=0.38;entryY=0;entryDx=0;entryDy=0;entryPerimeter=0;" edge="1" parent="1" source="uHv4ISglJeCQrf6ZQmay-8" target="KVw1wgc0Hjny8Czt4P6F-3">
          <mxGeometry relative="1" as="geometry">
            <mxPoint x="1760" y="850" as="sourcePoint" />
            <mxPoint x="1920" y="850" as="targetPoint" />
          </mxGeometry>
        </mxCell>
        <mxCell id="KVw1wgc0Hjny8Czt4P6F-29" value="" style="endArrow=none;html=1;rounded=0;fontFamily=Helvetica;exitX=1;exitY=0.633;exitDx=0;exitDy=0;exitPerimeter=0;entryX=0;entryY=0.5;entryDx=0;entryDy=0;" edge="1" parent="1" source="uHv4ISglJeCQrf6ZQmay-8" target="KVw1wgc0Hjny8Czt4P6F-4">
          <mxGeometry relative="1" as="geometry">
            <mxPoint x="1760" y="850" as="sourcePoint" />
            <mxPoint x="1920" y="850" as="targetPoint" />
          </mxGeometry>
        </mxCell>
        <mxCell id="KVw1wgc0Hjny8Czt4P6F-30" value="" style="endArrow=none;html=1;rounded=0;fontFamily=Helvetica;exitX=1;exitY=0.25;exitDx=0;exitDy=0;entryX=0;entryY=0.5;entryDx=0;entryDy=0;" edge="1" parent="1" source="uHv4ISglJeCQrf6ZQmay-8" target="KVw1wgc0Hjny8Czt4P6F-1">
          <mxGeometry relative="1" as="geometry">
            <mxPoint x="1760" y="850" as="sourcePoint" />
            <mxPoint x="1920" y="850" as="targetPoint" />
          </mxGeometry>
        </mxCell>
        <mxCell id="KVw1wgc0Hjny8Czt4P6F-31" value="" style="endArrow=none;html=1;rounded=0;fontFamily=Helvetica;exitX=0.75;exitY=0;exitDx=0;exitDy=0;entryX=0.5;entryY=1;entryDx=0;entryDy=0;" edge="1" parent="1" source="uHv4ISglJeCQrf6ZQmay-8" target="uHv4ISglJeCQrf6ZQmay-31">
          <mxGeometry relative="1" as="geometry">
            <mxPoint x="1760" y="850" as="sourcePoint" />
            <mxPoint x="1920" y="850" as="targetPoint" />
          </mxGeometry>
        </mxCell>
        <mxCell id="KVw1wgc0Hjny8Czt4P6F-32" value="" style="endArrow=none;html=1;rounded=0;fontFamily=Helvetica;exitX=0.57;exitY=1.05;exitDx=0;exitDy=0;exitPerimeter=0;entryX=0.5;entryY=0;entryDx=0;entryDy=0;" edge="1" parent="1" source="uHv4ISglJeCQrf6ZQmay-3" target="uHv4ISglJeCQrf6ZQmay-8">
          <mxGeometry relative="1" as="geometry">
            <mxPoint x="1760" y="850" as="sourcePoint" />
            <mxPoint x="1920" y="850" as="targetPoint" />
          </mxGeometry>
        </mxCell>
        <mxCell id="KVw1wgc0Hjny8Czt4P6F-33" value="" style="endArrow=none;html=1;rounded=0;fontFamily=Helvetica;exitX=1;exitY=1;exitDx=0;exitDy=0;entryX=0;entryY=0;entryDx=0;entryDy=0;" edge="1" parent="1" source="uHv4ISglJeCQrf6ZQmay-38" target="uHv4ISglJeCQrf6ZQmay-8">
          <mxGeometry relative="1" as="geometry">
            <mxPoint x="1760" y="850" as="sourcePoint" />
            <mxPoint x="1920" y="850" as="targetPoint" />
          </mxGeometry>
        </mxCell>
        <mxCell id="KVw1wgc0Hjny8Czt4P6F-34" value="" style="endArrow=none;html=1;rounded=0;fontFamily=Helvetica;exitX=1;exitY=0.5;exitDx=0;exitDy=0;entryX=0;entryY=0.5;entryDx=0;entryDy=0;" edge="1" parent="1" source="uHv4ISglJeCQrf6ZQmay-24" target="uHv4ISglJeCQrf6ZQmay-4">
          <mxGeometry relative="1" as="geometry">
            <mxPoint x="1054" y="830" as="sourcePoint" />
            <mxPoint x="1214" y="830" as="targetPoint" />
          </mxGeometry>
        </mxCell>
        <mxCell id="KVw1wgc0Hjny8Czt4P6F-35" value="" style="endArrow=none;html=1;rounded=0;fontFamily=Helvetica;exitX=1;exitY=1;exitDx=0;exitDy=0;entryX=0.5;entryY=0;entryDx=0;entryDy=0;" edge="1" parent="1" source="uHv4ISglJeCQrf6ZQmay-1" target="uHv4ISglJeCQrf6ZQmay-6">
          <mxGeometry relative="1" as="geometry">
            <mxPoint x="1170" y="603.8199999999999" as="sourcePoint" />
            <mxPoint x="1330" y="603.8199999999999" as="targetPoint" />
          </mxGeometry>
        </mxCell>
        <mxCell id="KVw1wgc0Hjny8Czt4P6F-36" value="τοποθεσια" style="ellipse;whiteSpace=wrap;html=1;align=center;fontFamily=Helvetica;gradientColor=none;" vertex="1" parent="1">
          <mxGeometry x="1314" y="980" width="100" height="40" as="geometry" />
        </mxCell>
        <mxCell id="KVw1wgc0Hjny8Czt4P6F-37" value="" style="endArrow=none;html=1;rounded=0;fontFamily=Helvetica;exitX=0.5;exitY=0;exitDx=0;exitDy=0;entryX=0;entryY=1;entryDx=0;entryDy=0;" edge="1" parent="1" source="uHv4ISglJeCQrf6ZQmay-25" target="KVw1wgc0Hjny8Czt4P6F-36">
          <mxGeometry relative="1" as="geometry">
            <mxPoint x="1660" y="950" as="sourcePoint" />
            <mxPoint x="1820" y="950" as="targetPoint" />
          </mxGeometry>
        </mxCell>
        <mxCell id="KVw1wgc0Hjny8Czt4P6F-38" value="" style="endArrow=none;html=1;rounded=0;fontFamily=Helvetica;exitX=0.5;exitY=0;exitDx=0;exitDy=0;entryX=1;entryY=1;entryDx=0;entryDy=0;" edge="1" parent="1" source="uHv4ISglJeCQrf6ZQmay-26" target="KVw1wgc0Hjny8Czt4P6F-36">
          <mxGeometry relative="1" as="geometry">
            <mxPoint x="1660" y="950" as="sourcePoint" />
            <mxPoint x="1820" y="950" as="targetPoint" />
          </mxGeometry>
        </mxCell>
        <mxCell id="KVw1wgc0Hjny8Czt4P6F-39" value="" style="endArrow=none;html=1;rounded=0;fontFamily=Helvetica;exitX=1;exitY=1;exitDx=0;exitDy=0;entryX=0.5;entryY=0;entryDx=0;entryDy=0;" edge="1" parent="1" source="uHv4ISglJeCQrf6ZQmay-4" target="KVw1wgc0Hjny8Czt4P6F-36">
          <mxGeometry relative="1" as="geometry">
            <mxPoint x="1450" y="850" as="sourcePoint" />
            <mxPoint x="1610" y="850" as="targetPoint" />
          </mxGeometry>
        </mxCell>
        <mxCell id="KVw1wgc0Hjny8Czt4P6F-40" value="" style="endArrow=none;html=1;rounded=0;fontFamily=Helvetica;exitX=0.5;exitY=1;exitDx=0;exitDy=0;entryX=0.8;entryY=0;entryDx=0;entryDy=0;entryPerimeter=0;" edge="1" parent="1" source="uHv4ISglJeCQrf6ZQmay-4" target="uHv4ISglJeCQrf6ZQmay-27">
          <mxGeometry relative="1" as="geometry">
            <mxPoint x="1450" y="850" as="sourcePoint" />
            <mxPoint x="1610" y="850" as="targetPoint" />
          </mxGeometry>
        </mxCell>
        <mxCell id="KVw1wgc0Hjny8Czt4P6F-41" value="" style="endArrow=none;html=1;rounded=0;fontFamily=Helvetica;exitX=1;exitY=0;exitDx=0;exitDy=0;entryX=0;entryY=1;entryDx=0;entryDy=0;" edge="1" parent="1" source="uHv4ISglJeCQrf6ZQmay-9" target="uHv4ISglJeCQrf6ZQmay-4">
          <mxGeometry relative="1" as="geometry">
            <mxPoint x="1450" y="850" as="sourcePoint" />
            <mxPoint x="1610" y="850" as="targetPoint" />
          </mxGeometry>
        </mxCell>
      </root>
    </mxGraphModel>
  </diagram>
</mxfile>
